<svg width="66" height="66" viewBox="0 0 66 66" fill="none" xmlns="http://www.w3.org/2000/svg">
<path d="M35.0625 42.0354C35.0625 40.8963 34.139 39.9729 33 39.9729C31.8609 39.9729 30.9375 40.8963 30.9375 42.0354H35.0625ZM43.3125 59.8122C44.4515 59.8122 45.375 58.8888 45.375 57.7497C45.375 56.6107 44.4515 55.6872 43.3125 55.6872V59.8122ZM22.6875 55.6872C21.5484 55.6872 20.625 56.6107 20.625 57.7497C20.625 58.8888 21.5484 59.8122 22.6875 59.8122V55.6872ZM30.9375 42.0354V57.7497H35.0625V42.0354H30.9375ZM43.3125 55.6872H33V59.8122H43.3125V55.6872ZM33 55.6872H22.6875V59.8122H33V55.6872ZM18.9605 10.3125H47.0396V6.1875H18.9605V10.3125ZM50.1875 13.4605V22H54.3125V13.4605H50.1875ZM15.8125 22V13.4605H11.6875V22H15.8125ZM33 39.1875C23.5076 39.1875 15.8125 31.4924 15.8125 22H11.6875C11.6875 33.7705 21.2294 43.3125 33 43.3125V39.1875ZM50.1875 22C50.1875 31.4924 42.4924 39.1875 33 39.1875V43.3125C44.7705 43.3125 54.3125 33.7705 54.3125 22H50.1875ZM47.0396 10.3125C48.7781 10.3125 50.1875 11.7219 50.1875 13.4605H54.3125C54.3125 9.44375 51.0562 6.1875 47.0396 6.1875V10.3125ZM18.9605 6.1875C14.9437 6.1875 11.6875 9.44375 11.6875 13.4605H15.8125C15.8125 11.7219 17.2219 10.3125 18.9605 10.3125V6.1875Z" fill="#BF828D"/>
<path d="M15.125 24.7503C15.125 24.7503 20.8482 22.2402 24.75 22.0003C31.5293 21.5833 34.4707 27.9172 41.25 27.5003C45.1517 27.2603 50.875 24.7503 50.875 24.7503" stroke="#BF828D" stroke-width="4" stroke-linecap="round"/>
</svg>
