<svg width="16" height="16" viewBox="0 0 16 16" fill="none" xmlns="http://www.w3.org/2000/svg">
<mask id="mask0_347_154" style="mask-type:luminance" maskUnits="userSpaceOnUse" x="0" y="0" width="15" height="16">
<path d="M14.6711 0H0V15.2385H14.6711V0Z" fill="white"/>
</mask>
<g mask="url(#mask0_347_154)">
<path d="M2.0148 15.2302H12.352C13.7171 15.2302 14.3667 14.8191 14.3667 13.9144C14.3667 11.7598 11.6447 8.64312 7.1875 8.64312C2.72204 8.64312 0 11.7598 0 13.9144C0 14.8191 0.649671 15.2302 2.0148 15.2302ZM1.62829 13.9885C1.41448 13.9885 1.32402 13.9309 1.32402 13.7582C1.32402 12.4013 3.41283 9.88488 7.1875 9.88488C10.9539 9.88488 13.0428 12.4013 13.0428 13.7582C13.0428 13.9309 12.9605 13.9885 12.7467 13.9885H1.62829ZM7.1875 7.61513C9.14476 7.61513 10.7401 5.87993 10.7401 3.75822C10.7401 1.65296 9.15293 0 7.1875 0C5.23848 0 3.63487 1.68585 3.63487 3.77467C3.63487 5.88816 5.23027 7.61513 7.1875 7.61513ZM7.1875 6.37336C5.98685 6.37336 4.95888 5.23027 4.95888 3.77467C4.95888 2.34375 5.97039 1.24178 7.1875 1.24178C8.41283 1.24178 9.41608 2.31908 9.41608 3.75822C9.41608 5.21382 8.39638 6.37336 7.1875 6.37336Z" fill="#BF828D"/>
</g>
</svg>
