<svg width="29" height="28" viewBox="0 0 29 28" fill="none" xmlns="http://www.w3.org/2000/svg">
<path d="M14.1611 22.4171C19.071 22.4171 23.0514 18.574 23.0514 13.8333C23.0514 9.09264 19.071 5.24957 14.1611 5.24957C9.25108 5.24957 5.27075 9.09264 5.27075 13.8333C5.27075 18.574 9.25108 22.4171 14.1611 22.4171Z" stroke="black" stroke-opacity="0.4" stroke-linecap="round" stroke-linejoin="round"/>
<path d="M20.6916 19.8891L20.3314 19.5423L19.6377 20.2626L19.9979 20.6095L20.6916 19.8891ZM23.4834 23.966C23.6823 24.1576 23.9989 24.1516 24.1904 23.9527C24.382 23.7538 24.376 23.4373 24.1771 23.2457L23.4834 23.966ZM19.9979 20.6095L23.4834 23.966L24.1771 23.2457L20.6916 19.8891L19.9979 20.6095Z" fill="black" fill-opacity="0.4"/>
</svg>
