<svg width="66" height="66" viewBox="0 0 66 66" fill="none" xmlns="http://www.w3.org/2000/svg">
<path d="M46.9008 40.6313L50.4896 14.2313C50.6014 13.495 50.5484 12.743 50.3344 12.0297C50.1204 11.3164 49.7507 10.6594 49.2521 10.1063C48.7792 9.53401 48.1874 9.07155 47.5178 8.751C46.8482 8.43045 46.1169 8.2595 45.3746 8.25H11.7558C11.0243 8.249 10.301 8.40492 9.63488 8.70725C8.96873 9.00958 8.37518 9.45129 7.89428 10.0026C7.41339 10.5538 7.05633 11.2018 6.84722 11.9029C6.6381 12.6039 6.58179 13.3416 6.68209 14.0663L11.4258 49.0463C11.5835 50.2904 12.1822 51.4367 13.1133 52.2769C14.0443 53.1171 15.2458 53.5955 16.4996 53.625H36.4646C39.5667 56.173 43.4246 57.6234 47.4371 57.75H48.0146C52.2714 57.7769 56.3653 56.1156 59.3996 53.13L46.9008 40.6313ZM45.3746 13.4063L44.7558 17.9025H12.3746L11.7558 13.4063H45.3746ZM29.8233 40.095C29.9169 42.9965 30.7245 45.8301 32.1746 48.345H16.4996L13.0758 23.0588H43.8896L42.1571 35.8875L34.4433 28.1738C32.8851 29.7292 31.6692 31.5932 30.8736 33.6462C30.078 35.6991 29.7202 37.8957 29.8233 40.095ZM47.6021 52.47C44.3029 52.3244 41.1801 50.9397 38.8571 48.5925C36.4955 46.2587 35.0968 43.1227 34.9383 39.8063C34.8982 38.6071 35.0514 37.4092 35.3921 36.2588L43.2708 44.1788L51.1496 52.0575C50.1292 52.3418 49.0738 52.4806 48.0146 52.47H47.6021Z" fill="#BF828D"/>
</svg>
